<svg width="94" height="94" viewBox="0 0 94 94" fill="none" xmlns="http://www.w3.org/2000/svg">
<path d="M64.4734 43.5148H62.5598V33.9419H62.5365C62.542 33.7807 62.5598 33.6233 62.5598 33.4612C62.5598 24.7389 55.4875 17.6666 46.7613 17.6666C38.0437 17.6666 30.9714 24.7389 30.9714 33.4612C30.9714 33.6233 30.9853 33.7807 30.99 33.9419H30.9714V43.5148H29.0531C27.4682 43.5148 26.1826 44.7997 26.1826 46.3853V69.3631C26.1826 70.9487 27.4674 72.2335 29.0531 72.2335H64.4734C66.0591 72.2335 67.3439 70.9487 67.3439 69.3631V46.3853C67.3447 44.7997 66.0591 43.5148 64.4734 43.5148ZM54.9013 33.9419V43.5148H38.626V33.9419H38.6539C38.6446 33.7807 38.626 33.6233 38.626 33.4612C38.626 28.9686 42.2687 25.3259 46.7613 25.3259C51.2539 25.3259 54.9013 28.9686 54.9013 33.4612C54.9013 33.6233 54.8874 33.7807 54.8788 33.9419H54.9013Z" fill="white"/>
<circle cx="47" cy="47" r="44" stroke="#F7F7F7" stroke-width="6"/>
</svg>
